<?xml version="1.0" encoding="UTF-8"?> <svg xmlns="http://www.w3.org/2000/svg" viewBox="0 0 480.46 144"><defs><style>.cls-1{fill:#0c224a;}.cls-2{opacity:0.5;}.cls-3{fill:#f7efee;}</style></defs><g id="Layer_2" data-name="Layer 2"><g id="Layer_1-2" data-name="Layer 1"><path class="cls-1" d="M171,119.54,90.7,103.36a6.54,6.54,0,0,0-2.57,0L7.8,119.54A6.52,6.52,0,0,1,0,113.15V6.51A6.52,6.52,0,0,1,6.51,0H172.33a6.52,6.52,0,0,1,6.51,6.51V113.15A6.52,6.52,0,0,1,171,119.54Z"></path><g class="cls-2"><path class="cls-3" d="M101.72,17.58H94.41V16.25h44.27l1,14.12h-1.33a14.38,14.38,0,0,0-1.12-6,10.14,10.14,0,0,0-3.11-4,12.78,12.78,0,0,0-4.78-2.16,26.49,26.49,0,0,0-6.11-.66h-13V44.32h6.23a11.81,11.81,0,0,0,5.11-.91A7.09,7.09,0,0,0,124.4,41a7.86,7.86,0,0,0,1.24-3.41,29.37,29.37,0,0,0,.25-3.9h1.33v22.1h-1.33a32.26,32.26,0,0,0-.25-4.24,6.49,6.49,0,0,0-1.24-3.2,6.37,6.37,0,0,0-2.91-2,15.24,15.24,0,0,0-5.15-.71h-6.15V73.4h11.38a74.75,74.75,0,0,0,8.81-.46,14.48,14.48,0,0,0,6.23-2.08,9.55,9.55,0,0,0,3.69-4.73,23.82,23.82,0,0,0,1.21-8.43h1.33v17H94.41V73.4h7.31Z"></path></g><path class="cls-3" d="M66.68,17.58H59.37V16.25h16L92.84,60.44,110,16.25h15.78v1.33h-7.31V73.4h7.31v1.32H102.15V73.4H110V20.73h-.17L89.52,73.4h-.75L68.17,21.73H68V66.5a28.82,28.82,0,0,0,.16,3.41A4.47,4.47,0,0,0,68.92,72a3,3,0,0,0,1.58,1.08,9.94,9.94,0,0,0,2.66.29h3.32v1.32H59.37V73.4h2.16a10,10,0,0,0,2.66-.29A3,3,0,0,0,65.77,72a4.58,4.58,0,0,0,.74-2.12,28.52,28.52,0,0,0,.17-3.41Z"></path><g class="cls-2"><path class="cls-3" d="M35.29,54.21h1.33a25.72,25.72,0,0,0,1.45,9.09A18.4,18.4,0,0,0,42,69.7a15.52,15.52,0,0,0,5.78,3.78,19.9,19.9,0,0,0,7.06,1.24,16.14,16.14,0,0,0,5.52-.91,12.56,12.56,0,0,0,4.32-2.57,12.29,12.29,0,0,0,2.82-3.95,12.06,12.06,0,0,0,1-5.11,15.25,15.25,0,0,0-.83-5.4,8.65,8.65,0,0,0-2.57-3.61,12.66,12.66,0,0,0-4.41-2.28,45,45,0,0,0-6.23-1.42A76.6,76.6,0,0,1,46,47.73a16.3,16.3,0,0,1-6-2.91,11.34,11.34,0,0,1-3.53-5.11,25.07,25.07,0,0,1-1.16-8.43,18.48,18.48,0,0,1,1.12-6.56,15.19,15.19,0,0,1,3.15-5.15,14.73,14.73,0,0,1,4.9-3.41,15.83,15.83,0,0,1,6.36-1.24,16.87,16.87,0,0,1,5.52.79,23,23,0,0,1,3.95,1.74c1.11.64,2.06,1.22,2.86,1.75a4.29,4.29,0,0,0,2.29.79,1.74,1.74,0,0,0,1.83-1.17,15.44,15.44,0,0,0,.58-2h1.33V34.27H67.85a25.62,25.62,0,0,0-1.41-6.81,18.94,18.94,0,0,0-3.24-5.73,15.55,15.55,0,0,0-5.15-4,16.46,16.46,0,0,0-7.23-1.49,11.88,11.88,0,0,0-8.68,3.28q-3.36,3.28-3.36,9a13.89,13.89,0,0,0,.66,4.65,6.29,6.29,0,0,0,2.49,3.08A16.91,16.91,0,0,0,47,38.38c2.16.58,5,1.18,8.39,1.79a46.68,46.68,0,0,1,7.81,2,15.64,15.64,0,0,1,5.31,3.16,11.39,11.39,0,0,1,3,4.78,21.56,21.56,0,0,1,1,6.89,24.5,24.5,0,0,1-1.12,7.56,16.58,16.58,0,0,1-3.37,6,15.51,15.51,0,0,1-5.64,4,20,20,0,0,1-7.9,1.45,21.09,21.09,0,0,1-5.56-.66,29.48,29.48,0,0,1-4.28-1.5c-1.25-.55-2.35-1-3.32-1.49a6.46,6.46,0,0,0-2.62-.67,1.59,1.59,0,0,0-1.78,1.21,9.38,9.38,0,0,0-.29,2.28l-1.33-.08Z"></path></g><path class="cls-3" d="M37.53,80.93h-2.3v-.46h2.3c.35,0,.65,0,.9,0a3,3,0,0,0,.65-.07,1.3,1.3,0,0,0,.48-.19,1.65,1.65,0,0,0,.41-.36v3H40a8.5,8.5,0,0,1,.69-1,6.22,6.22,0,0,1,1-1,5.09,5.09,0,0,1,1.22-.7,4.07,4.07,0,0,1,1.46-.26,5.62,5.62,0,0,1,1.93.28,3.21,3.21,0,0,1,1.22.72,2.59,2.59,0,0,1,.64,1,4,4,0,0,1,.19,1.23v8.81h2.29v.46h-7v-.46h2.3v-9.5a2.16,2.16,0,0,0-.51-1.67,1.76,1.76,0,0,0-1.21-.45,3.24,3.24,0,0,0-1.62.39,4.73,4.73,0,0,0-1.21.94,6.18,6.18,0,0,0-.84,1.14c-.23.38-.41.7-.54,1v8.2h2.21v.46h-7v-.46h2.3Z"></path><path class="cls-3" d="M71.18,87.88c0,.52,0,1,.08,1.56a4,4,0,0,0,.37,1.4,2.5,2.5,0,0,0,.92,1,3,3,0,0,0,1.63.39A4.86,4.86,0,0,0,75.86,92a4.78,4.78,0,0,0,1.4-.82,4.49,4.49,0,0,0,1-1.26,5.13,5.13,0,0,0,.56-1.64h.46a5.42,5.42,0,0,1-1.73,3.24,4.9,4.9,0,0,1-3.38,1.23,5.72,5.72,0,0,1-2.34-.46A5.24,5.24,0,0,1,70,91a6,6,0,0,1-1.2-2,7.76,7.76,0,0,1-.42-2.63,6.59,6.59,0,0,1,.41-2.19A7.51,7.51,0,0,1,69.92,82a6.06,6.06,0,0,1,1.71-1.56,4.33,4.33,0,0,1,4.45,0,6.78,6.78,0,0,1,1.63,1.46,7.12,7.12,0,0,1,1,1.67A3.92,3.92,0,0,1,79,84.89a.23.23,0,0,1-.26.26H71.18Zm5.06-4a8.28,8.28,0,0,0-.1-1.34,3.8,3.8,0,0,0-.38-1.15,2.08,2.08,0,0,0-.74-.79,2.17,2.17,0,0,0-1.19-.29,2.46,2.46,0,0,0-1.27.29,2.19,2.19,0,0,0-.81.79,3.87,3.87,0,0,0-.44,1.15,7.25,7.25,0,0,0-.13,1.34v.81H76a.18.18,0,0,0,.2-.2Z"></path><path class="cls-3" d="M98.18,80.93H96.61v-.46h13v.46h-2.32l3.83,8.93,2.76-6.37a6.29,6.29,0,0,0,.37-1,3.27,3.27,0,0,0,.1-.71.74.74,0,0,0-.31-.64,1.74,1.74,0,0,0-1.06-.24h-.78v-.46h5v.46a3.44,3.44,0,0,0-1.1.15,1.86,1.86,0,0,0-.73.44,2.62,2.62,0,0,0-.5.72c-.15.29-.3.62-.46,1l-4.27,9.85H110l-3.23-7.23-3.08,7.23h-.2Zm6.54,8.72,1.86-4.36-1.92-4.36H101Z"></path><path class="cls-3" d="M135.15,88.17h.38a9.07,9.07,0,0,0,.3,1.27,4.62,4.62,0,0,0,.67,1.33,3.83,3.83,0,0,0,1.19,1.06,3.68,3.68,0,0,0,1.88.44,2.88,2.88,0,0,0,2-.73,2.53,2.53,0,0,0,.79-2,2.47,2.47,0,0,0-.29-1.34,1.88,1.88,0,0,0-.77-.71,3,3,0,0,0-1.06-.32l-1.16-.13c-.46-.06-.92-.13-1.37-.22a3.39,3.39,0,0,1-1.19-.48,2.45,2.45,0,0,1-.84-1,4.82,4.82,0,0,1-.07-3.26,3.49,3.49,0,0,1,.71-1.19,3.17,3.17,0,0,1,1.15-.8,3.89,3.89,0,0,1,1.52-.29,3.4,3.4,0,0,1,1.08.16,6,6,0,0,1,.87.35c.25.13.46.24.63.35a.85.85,0,0,0,.36.16c.13,0,.2-.21.2-.61V80h.41l.12,3.45h-.38a7.12,7.12,0,0,0-.29-1.19,3,3,0,0,0-.61-1,2.92,2.92,0,0,0-1-.69,3.5,3.5,0,0,0-1.46-.26,3,3,0,0,0-1.89.59,2,2,0,0,0-.79,1.73,1.7,1.7,0,0,0,.8,1.6,5.14,5.14,0,0,0,2.25.55l1,.06a3.5,3.5,0,0,1,2.54,1,3.55,3.55,0,0,1,.78,2.41,5.11,5.11,0,0,1-.32,1.84,4.3,4.3,0,0,1-.86,1.41,3.72,3.72,0,0,1-1.28.9,3.82,3.82,0,0,1-1.58.32,4.66,4.66,0,0,1-1.46-.19,4.2,4.2,0,0,1-1-.43c-.26-.16-.49-.31-.67-.44a.92.92,0,0,0-.48-.19c-.19,0-.29.11-.29.32a6.14,6.14,0,0,1-.06.76h-.43Z"></path><polygon class="cls-1" points="206.85 0 208.62 5.44 214.34 5.44 209.71 8.79 211.48 14.23 206.85 10.87 202.23 14.23 204 8.79 199.37 5.44 205.09 5.44 206.85 0"></polygon><polygon class="cls-1" points="222.51 0 224.28 5.44 229.99 5.44 225.37 8.79 227.13 14.23 222.51 10.87 217.89 14.23 219.65 8.79 215.03 5.44 220.74 5.44 222.51 0"></polygon><polygon class="cls-1" points="238.16 0 239.93 5.44 245.65 5.44 241.02 8.79 242.79 14.23 238.16 10.87 233.54 14.23 235.31 8.79 230.68 5.44 236.4 5.44 238.16 0"></polygon><polygon class="cls-1" points="253.82 0 255.59 5.44 261.3 5.44 256.68 8.79 258.44 14.23 253.82 10.87 249.19 14.23 250.96 8.79 246.34 5.44 252.05 5.44 253.82 0"></polygon><polygon class="cls-1" points="269.47 0 271.24 5.44 276.95 5.44 272.33 8.79 274.1 14.23 269.47 10.87 264.85 14.23 266.62 8.79 261.99 5.44 267.71 5.44 269.47 0"></polygon><polygon class="cls-1" points="285.13 0 286.89 5.44 292.61 5.44 287.99 8.79 289.75 14.23 285.13 10.87 280.5 14.23 282.27 8.79 277.65 5.44 283.36 5.44 285.13 0"></polygon><polygon class="cls-1" points="300.78 0 302.55 5.44 308.26 5.44 303.64 8.79 305.41 14.23 300.78 10.87 296.16 14.23 297.93 8.79 293.3 5.44 299.02 5.44 300.78 0"></polygon><polygon class="cls-1" points="316.44 0 318.2 5.44 323.92 5.44 319.29 8.79 321.06 14.23 316.44 10.87 311.81 14.23 313.58 8.79 308.95 5.44 314.67 5.44 316.44 0"></polygon><polygon class="cls-1" points="332.09 0 333.86 5.44 339.57 5.44 334.95 8.79 336.71 14.23 332.09 10.87 327.47 14.23 329.23 8.79 324.61 5.44 330.32 5.44 332.09 0"></polygon><polygon class="cls-1" points="347.75 0 349.51 5.44 355.23 5.44 350.6 8.79 352.37 14.23 347.75 10.87 343.12 14.23 344.89 8.79 340.26 5.44 345.98 5.44 347.75 0"></polygon><polygon class="cls-1" points="363.4 0 365.17 5.44 370.88 5.44 366.26 8.79 368.02 14.23 363.4 10.87 358.78 14.23 360.54 8.79 355.92 5.44 361.63 5.44 363.4 0"></polygon><polygon class="cls-1" points="379.06 0 380.82 5.44 386.54 5.44 381.91 8.79 383.68 14.23 379.06 10.87 374.43 14.23 376.2 8.79 371.57 5.44 377.29 5.44 379.06 0"></polygon><polygon class="cls-1" points="394.71 0 396.48 5.44 402.19 5.44 397.57 8.79 399.33 14.23 394.71 10.87 390.08 14.23 391.85 8.79 387.23 5.44 392.94 5.44 394.71 0"></polygon><polygon class="cls-1" points="410.36 0 412.13 5.44 417.85 5.44 413.22 8.79 414.99 14.23 410.36 10.87 405.74 14.23 407.51 8.79 402.88 5.44 408.6 5.44 410.36 0"></polygon><polygon class="cls-1" points="426.02 0 427.78 5.44 433.5 5.44 428.88 8.79 430.64 14.23 426.02 10.87 421.39 14.23 423.16 8.79 418.54 5.44 424.25 5.44 426.02 0"></polygon><polygon class="cls-1" points="441.67 0 443.44 5.44 449.15 5.44 444.53 8.79 446.3 14.23 441.67 10.87 437.05 14.23 438.81 8.79 434.19 5.44 439.91 5.44 441.67 0"></polygon><polygon class="cls-1" points="457.33 0 459.09 5.44 464.81 5.44 460.19 8.79 461.95 14.23 457.33 10.87 452.7 14.23 454.47 8.79 449.85 5.44 455.56 5.44 457.33 0"></polygon><polygon class="cls-1" points="472.98 0 474.75 5.44 480.46 5.44 475.84 8.79 477.61 14.23 472.98 10.87 468.36 14.23 470.12 8.79 465.5 5.44 471.22 5.44 472.98 0"></polygon><polygon class="cls-1" points="468.89 84.61 471.63 93.02 480.46 93.02 473.31 98.21 476.04 106.61 468.89 101.42 461.75 106.61 464.48 98.21 457.33 93.02 466.16 93.02 468.89 84.61"></polygon><polygon class="cls-1" points="210.97 84.61 213.7 93.02 222.53 93.02 215.39 98.21 218.12 106.61 210.97 101.42 203.82 106.61 206.55 98.21 199.4 93.02 208.24 93.02 210.97 84.61"></polygon><path class="cls-1" d="M0,130.74H4.77a3.83,3.83,0,0,1,2.57.78,2.47,2.47,0,0,1,.85,2,2.19,2.19,0,0,1-1.66,2.13v.05a2.66,2.66,0,0,1,2,2.63,2.7,2.7,0,0,1-.94,2.22,4,4,0,0,1-2.68.85H0ZM4.5,135c.94,0,1.58-.44,1.58-1.28s-.58-1.25-1.54-1.25H2.16V135Zm-2.34,4.58H4.65c1,0,1.67-.58,1.67-1.45a1.53,1.53,0,0,0-1.73-1.53H2.16Z"></path><path class="cls-1" d="M9.84,137.56a3.78,3.78,0,0,1,3.77-4c2.45,0,3.77,1.88,3.77,4.61H11.83a1.9,1.9,0,0,0,1.95,1.9,1.42,1.42,0,0,0,1.48-.94h2a3.27,3.27,0,0,1-3.45,2.51A3.79,3.79,0,0,1,9.84,137.56Zm2-.81h3.4a1.61,1.61,0,0,0-1.62-1.64A1.7,1.7,0,0,0,11.86,136.75Z"></path><path class="cls-1" d="M18.29,138.92h1.87a1.48,1.48,0,0,0,1.67,1.27c.9,0,1.4-.35,1.4-.88,0-.73-1-.81-2-1-1.37-.27-2.71-.65-2.71-2.31s1.37-2.45,3.11-2.45c2,0,3.13,1,3.28,2.54H23.07c-.09-.82-.61-1.12-1.48-1.12s-1.31.3-1.31.85,1,.71,2.1.94c1.29.26,2.7.62,2.7,2.41,0,1.53-1.31,2.46-3.22,2.46C19.64,141.62,18.41,140.54,18.29,138.92Z"></path><path class="cls-1" d="M25.84,133.75H26.9v-2.38h2v2.38h1.31v1.34H28.88v4a.67.67,0,0,0,.76.76h.6v1.49s-.46,0-1.27,0c-1,0-2.07-.39-2.07-1.83v-4.49H25.84Z"></path><path class="cls-1" d="M34.8,130.74H37v8.85h5v1.8H34.8Z"></path><path class="cls-1" d="M42.89,137.56a3.79,3.79,0,0,1,3.77-4c2.46,0,3.77,1.88,3.77,4.61H44.89a1.9,1.9,0,0,0,2,1.9,1.43,1.43,0,0,0,1.48-.94h2a3.28,3.28,0,0,1-3.45,2.51A3.79,3.79,0,0,1,42.89,137.56Zm2-.81h3.4a1.61,1.61,0,0,0-1.63-1.64A1.7,1.7,0,0,0,44.92,136.75Z"></path><path class="cls-1" d="M56.4,140.54h0a2.33,2.33,0,0,1-2.25,1c-1.57,0-2.67-.82-2.67-2.34,0-1.68,1.37-2.22,3.07-2.45,1.26-.18,1.85-.29,1.85-.87s-.44-.91-1.29-.91-1.41.35-1.47,1.08h-1.8c.06-1.34,1-2.52,3.29-2.52s3.22,1,3.22,2.81v3.89c0,.58.09.92.27,1.06v.07h-2A2,2,0,0,1,56.4,140.54Zm0-1.84v-1.15A5.65,5.65,0,0,1,55,138c-1.05.24-1.57.47-1.57,1.19s.47,1,1.19,1A1.6,1.6,0,0,0,56.41,138.7Z"></path><path class="cls-1" d="M59.57,138.92h1.88a1.47,1.47,0,0,0,1.67,1.27c.89,0,1.4-.35,1.4-.88,0-.73-1-.81-2-1-1.37-.27-2.71-.65-2.71-2.31s1.37-2.45,3.11-2.45c2,0,3.13,1,3.28,2.54H64.35c-.08-.82-.61-1.12-1.47-1.12s-1.31.3-1.31.85,1,.71,2.1.94c1.28.26,2.7.62,2.7,2.41,0,1.53-1.32,2.46-3.22,2.46C60.93,141.62,59.69,140.54,59.57,138.92Z"></path><path class="cls-1" d="M67.43,137.56a3.78,3.78,0,0,1,3.76-4c2.46,0,3.77,1.88,3.77,4.61H69.42a1.9,1.9,0,0,0,2,1.9,1.42,1.42,0,0,0,1.48-.94h2a3.28,3.28,0,0,1-3.45,2.51A3.79,3.79,0,0,1,67.43,137.56Zm2-.81h3.4a1.61,1.61,0,0,0-1.63-1.64A1.7,1.7,0,0,0,69.45,136.75Z"></path><path class="cls-1" d="M78.38,134.75h0a2.46,2.46,0,0,1,2.22-1.21,2.64,2.64,0,0,1,2.64,2.86v5h-2V136.7a1.27,1.27,0,0,0-1.32-1.4,1.6,1.6,0,0,0-1.55,1.76v4.33h-2V130.74h2Z"></path><path class="cls-1" d="M84.61,137.58a4,4,0,1,1,4,4A3.88,3.88,0,0,1,84.61,137.58Zm5.93,0c0-1.49-.7-2.5-1.94-2.5s-1.93,1-1.93,2.5.68,2.49,1.93,2.49S90.54,139.07,90.54,137.58Z"></path><path class="cls-1" d="M94,130.74h2v10.65H94Z"></path><path class="cls-1" d="M97.46,137.58c0-2.38,1.35-4,3.26-4a2.42,2.42,0,0,1,2.16,1.14h.05v-3.94h2v10.65h-2v-1h0a2.55,2.55,0,0,1-2.28,1.22C98.77,141.62,97.46,140.05,97.46,137.58Zm5.51,0c0-1.45-.48-2.44-1.77-2.44-1.12,0-1.69,1-1.69,2.4s.58,2.34,1.63,2.34C102.34,139.92,103,139,103,137.62Z"></path><path class="cls-1" d="M109.83,130.74h4.68a3.72,3.72,0,0,1,2.78,1,3.4,3.4,0,0,1,.95,2.43,3.23,3.23,0,0,1-3.56,3.37h-2.62v3.85h-2.23Zm2.23,5h2.24a1.53,1.53,0,0,0,1.73-1.6,1.49,1.49,0,0,0-1.7-1.56h-2.27Z"></path><path class="cls-1" d="M121.56,135h0a2,2,0,0,1,1.88-1.31,1.48,1.48,0,0,1,.48.06v1.77h0a1.93,1.93,0,0,0-2.28,2.18v3.72h-2v-7.64h2Z"></path><path class="cls-1" d="M124.69,137.58a4,4,0,1,1,4,4A3.88,3.88,0,0,1,124.69,137.58Zm5.93,0c0-1.49-.7-2.5-1.94-2.5s-1.94,1-1.94,2.5.69,2.49,1.94,2.49S130.62,139.07,130.62,137.58Z"></path><path class="cls-1" d="M134.06,133.75H136v.95h.05a2.67,2.67,0,0,1,2.25-1.16c2,0,3.32,1.66,3.32,4s-1.34,4-3.31,4a2.47,2.47,0,0,1-2.2-1.09h0v3.37h-2Zm5.51,3.89c0-1.45-.5-2.46-1.75-2.46s-1.78,1.09-1.78,2.46.64,2.29,1.85,2.29C138.92,139.93,139.57,139.08,139.57,137.64Z"></path><path class="cls-1" d="M142.65,137.56a3.78,3.78,0,0,1,3.77-4c2.45,0,3.77,1.88,3.77,4.61h-5.55a1.9,1.9,0,0,0,2,1.9,1.41,1.41,0,0,0,1.47-.94h2a3.29,3.29,0,0,1-3.46,2.51A3.79,3.79,0,0,1,142.65,137.56Zm2-.81h3.4a1.61,1.61,0,0,0-1.62-1.64A1.7,1.7,0,0,0,144.67,136.75Z"></path><path class="cls-1" d="M153.53,135h0a2,2,0,0,1,1.88-1.31,1.37,1.37,0,0,1,.47.06v1.77h0a1.93,1.93,0,0,0-2.28,2.18v3.72h-2v-7.64h2Z"></path><path class="cls-1" d="M156.88,133.75h1.06v-2.38h2v2.38h1.31v1.34h-1.31v4a.67.67,0,0,0,.76.76h.6v1.49s-.47,0-1.27,0c-1,0-2.07-.39-2.07-1.83v-4.49h-1.06Z"></path><path class="cls-1" d="M163,142.3h.71c.81,0,1.13-.41,1.13-1a6.63,6.63,0,0,0-.58-2.07l-2.05-5.44h2.13l1.13,3.44c.24.7.49,1.67.49,1.67h0s.21-1,.45-1.67l1.07-3.44h2l-2.67,7.84c-.58,1.7-1.14,2.31-2.69,2.31H163Z"></path><path class="cls-1" d="M173.84,130.74h3l1.5,5.35c.38,1.34.68,2.88.68,2.88h0s.29-1.54.66-2.88l1.5-5.35h3.09v10.65h-2v-6.1c0-.87.09-2.21.09-2.21h0s-.24,1.25-.46,2l-1.84,6.28H178l-1.79-6.28c-.22-.78-.46-2-.46-2h0s.09,1.34.09,2.21v6.1h-2Z"></path><path class="cls-1" d="M190.83,140.54h0a2.33,2.33,0,0,1-2.25,1c-1.56,0-2.67-.82-2.67-2.34,0-1.68,1.37-2.22,3.07-2.45,1.27-.18,1.85-.29,1.85-.87s-.43-.91-1.28-.91-1.42.35-1.48,1.08h-1.8c.06-1.34,1.06-2.52,3.29-2.52s3.22,1,3.22,2.81v3.89c0,.58.09.92.27,1.06v.07h-2A2.11,2.11,0,0,1,190.83,140.54Zm0-1.84v-1.15a5.65,5.65,0,0,1-1.42.45c-1.06.24-1.58.47-1.58,1.19s.48,1,1.19,1A1.61,1.61,0,0,0,190.85,138.7Z"></path><path class="cls-1" d="M196.47,134.79h0a2.49,2.49,0,0,1,2.26-1.25,2.64,2.64,0,0,1,2.64,2.86v5h-2V136.7a1.27,1.27,0,0,0-1.33-1.4,1.6,1.6,0,0,0-1.55,1.76v4.33h-2v-7.64h2Z"></path><path class="cls-1" d="M207.69,140.54h0a2.33,2.33,0,0,1-2.25,1c-1.57,0-2.67-.82-2.67-2.34,0-1.68,1.37-2.22,3.07-2.45,1.27-.18,1.85-.29,1.85-.87s-.44-.91-1.28-.91-1.42.35-1.48,1.08h-1.8c.06-1.34,1.06-2.52,3.29-2.52s3.22,1,3.22,2.81v3.89c0,.58.09.92.27,1.06v.07h-2A2.13,2.13,0,0,1,207.69,140.54Zm0-1.84v-1.15a5.7,5.7,0,0,1-1.41.45c-1.06.24-1.58.47-1.58,1.19s.47,1,1.19,1A1.6,1.6,0,0,0,207.7,138.7Z"></path><path class="cls-1" d="M211.13,141.62h2c.17.47.6.85,1.54.85,1.14,0,1.69-.55,1.69-1.6V140h0a2.5,2.5,0,0,1-2,.89,3.43,3.43,0,0,1-3.36-3.65c0-2.28,1.37-3.74,3.31-3.74a2.46,2.46,0,0,1,2.11,1h0v-.81h2v7.06a3,3,0,0,1-.91,2.33,4,4,0,0,1-2.75.86C212.62,144,211.34,143.11,211.13,141.62Zm5.35-4.38a1.84,1.84,0,0,0-1.82-2.07c-1,0-1.71.8-1.71,2.08s.68,2.06,1.73,2.06C216,139.31,216.48,138.37,216.48,137.24Z"></path><path class="cls-1" d="M219.76,137.56a3.79,3.79,0,0,1,3.77-4c2.46,0,3.77,1.88,3.77,4.61h-5.54a1.9,1.9,0,0,0,2,1.9,1.41,1.41,0,0,0,1.47-.94h2a3.28,3.28,0,0,1-3.46,2.51A3.79,3.79,0,0,1,219.76,137.56Zm2-.81h3.39a1.61,1.61,0,0,0-1.62-1.64A1.7,1.7,0,0,0,221.79,136.75Z"></path><path class="cls-1" d="M228.69,133.75h1.95v1h0a2.51,2.51,0,0,1,2.22-1.24,2.29,2.29,0,0,1,2.12,1.34h0a2.66,2.66,0,0,1,2.29-1.34,2.41,2.41,0,0,1,2.52,2.71v5.14h-2V136.6c0-.87-.43-1.31-1.17-1.31s-1.37.65-1.37,1.66v4.44h-2V136.6c0-.87-.43-1.31-1.17-1.31s-1.38.65-1.38,1.66v4.44h-2Z"></path><path class="cls-1" d="M241.19,137.56a3.79,3.79,0,0,1,3.77-4c2.46,0,3.77,1.88,3.77,4.61h-5.54a1.9,1.9,0,0,0,1.95,1.9,1.43,1.43,0,0,0,1.48-.94h2a3.28,3.28,0,0,1-3.45,2.51A3.79,3.79,0,0,1,241.19,137.56Zm2-.81h3.4a1.61,1.61,0,0,0-1.63-1.64A1.7,1.7,0,0,0,243.22,136.75Z"></path><path class="cls-1" d="M252.1,134.79h.05a2.49,2.49,0,0,1,2.26-1.25,2.64,2.64,0,0,1,2.64,2.86v5h-2V136.7a1.27,1.27,0,0,0-1.32-1.4,1.6,1.6,0,0,0-1.55,1.76v4.33h-2v-7.64h2Z"></path><path class="cls-1" d="M258.15,133.75h1.06v-2.38h2v2.38h1.31v1.34h-1.31v4a.67.67,0,0,0,.76.76h.6v1.49s-.46,0-1.27,0c-1,0-2.07-.39-2.07-1.83v-4.49h-1.06Z"></path><path class="cls-1" d="M267.11,130.74h4.77a3.86,3.86,0,0,1,2.58.78,2.5,2.5,0,0,1,.84,2,2.19,2.19,0,0,1-1.66,2.13v.05a2.66,2.66,0,0,1,2,2.63,2.7,2.7,0,0,1-.94,2.22,4,4,0,0,1-2.68.85h-4.89Zm4.5,4.29c.94,0,1.58-.44,1.58-1.28s-.58-1.25-1.54-1.25h-2.38V135Zm-2.34,4.58h2.49c1,0,1.67-.58,1.67-1.45a1.53,1.53,0,0,0-1.73-1.53h-2.43Z"></path><path class="cls-1" d="M282,141.39v-.89H282a2.44,2.44,0,0,1-2.19,1.1,2.5,2.5,0,0,1-2.65-2.75v-5.1h2v4.75c0,.9.41,1.39,1.27,1.39a1.55,1.55,0,0,0,1.53-1.73v-4.41h2v7.64Z"></path><path class="cls-1" d="M285.24,138.92h1.87a1.48,1.48,0,0,0,1.67,1.27c.89,0,1.4-.35,1.4-.88,0-.73-1-.81-2-1-1.37-.27-2.71-.65-2.71-2.31s1.37-2.45,3.11-2.45c2,0,3.13,1,3.28,2.54H290c-.09-.82-.61-1.12-1.48-1.12s-1.31.3-1.31.85,1,.71,2.1.94c1.28.26,2.7.62,2.7,2.41,0,1.53-1.31,2.46-3.22,2.46C286.59,141.62,285.36,140.54,285.24,138.92Z"></path><path class="cls-1" d="M293.39,130.74h2v1.82h-2Zm0,3h2v7.64h-2Z"></path><path class="cls-1" d="M299.16,134.79h0a2.49,2.49,0,0,1,2.26-1.25,2.64,2.64,0,0,1,2.64,2.86v5h-2V136.7a1.27,1.27,0,0,0-1.32-1.4,1.6,1.6,0,0,0-1.55,1.76v4.33h-2v-7.64h2Z"></path><path class="cls-1" d="M305.43,137.56a3.78,3.78,0,0,1,3.77-4c2.46,0,3.77,1.88,3.77,4.61h-5.54a1.9,1.9,0,0,0,1.95,1.9,1.41,1.41,0,0,0,1.47-.94h2a3.28,3.28,0,0,1-3.46,2.51A3.79,3.79,0,0,1,305.43,137.56Zm2-.81h3.39a1.61,1.61,0,0,0-1.62-1.64A1.7,1.7,0,0,0,307.46,136.75Z"></path><path class="cls-1" d="M313.88,138.92h1.88a1.47,1.47,0,0,0,1.67,1.27c.89,0,1.4-.35,1.4-.88,0-.73-1-.81-2-1-1.37-.27-2.71-.65-2.71-2.31s1.36-2.45,3.11-2.45c2,0,3.13,1,3.28,2.54h-1.84c-.09-.82-.61-1.12-1.47-1.12s-1.31.3-1.31.85,1,.71,2.1.94c1.28.26,2.69.62,2.69,2.41,0,1.53-1.31,2.46-3.21,2.46C315.24,141.62,314,140.54,313.88,138.92Z"></path><path class="cls-1" d="M321.56,138.92h1.87a1.48,1.48,0,0,0,1.67,1.27c.9,0,1.4-.35,1.4-.88,0-.73-1-.81-2-1-1.37-.27-2.71-.65-2.71-2.31s1.37-2.45,3.11-2.45c2,0,3.13,1,3.28,2.54h-1.83c-.09-.82-.61-1.12-1.48-1.12s-1.31.3-1.31.85,1,.71,2.1.94c1.28.26,2.7.62,2.7,2.41,0,1.53-1.31,2.46-3.22,2.46C322.91,141.62,321.68,140.54,321.56,138.92Z"></path><path class="cls-1" d="M332.51,136.84h4v1.74h-4Z"></path><path class="cls-1" d="M341.27,130.74H346a3.84,3.84,0,0,1,2.58.78,2.5,2.5,0,0,1,.85,2,2.19,2.19,0,0,1-1.67,2.13v.05a2.87,2.87,0,0,1,1,4.85,4,4,0,0,1-2.68.85h-4.89Zm4.5,4.29c.94,0,1.58-.44,1.58-1.28s-.58-1.25-1.53-1.25h-2.39V135Zm-2.34,4.58h2.49c1,0,1.67-.58,1.67-1.45a1.52,1.52,0,0,0-1.73-1.53h-2.43Z"></path><path class="cls-1" d="M353.29,135h0a2,2,0,0,1,1.88-1.31,1.37,1.37,0,0,1,.47.06v1.77h0a1.93,1.93,0,0,0-2.28,2.18v3.72h-2v-7.64h2Z"></path><path class="cls-1" d="M357,130.74h2v1.82h-2Zm0,3h2v7.64h-2Z"></path><path class="cls-1" d="M360.32,138.92h1.88a1.47,1.47,0,0,0,1.67,1.27c.89,0,1.4-.35,1.4-.88,0-.73-1-.81-2-1-1.37-.27-2.71-.65-2.71-2.31s1.37-2.45,3.11-2.45c2,0,3.13,1,3.28,2.54H365.1c-.08-.82-.61-1.12-1.47-1.12s-1.31.3-1.31.85,1,.71,2.1.94c1.28.26,2.7.62,2.7,2.41,0,1.53-1.32,2.46-3.22,2.46C361.68,141.62,360.44,140.54,360.32,138.92Z"></path><path class="cls-1" d="M367.88,133.75h1.06v-2.38h2v2.38h1.31v1.34h-1.31v4a.67.67,0,0,0,.76.76h.59v1.49s-.46,0-1.26,0c-1,0-2.07-.39-2.07-1.83v-4.49h-1.06Z"></path><path class="cls-1" d="M373.27,137.58a4,4,0,1,1,4,4A3.89,3.89,0,0,1,373.27,137.58Zm5.93,0c0-1.49-.7-2.5-1.93-2.5s-1.94,1-1.94,2.5.69,2.49,1.94,2.49S379.2,139.07,379.2,137.58Z"></path><path class="cls-1" d="M382.68,130.74h2v10.65h-2Z"></path><path class="cls-1" d="M389.07,138.65c0-1.52,1-2.47,2.36-3.17a3.2,3.2,0,0,1-.9-2.21,2.79,2.79,0,0,1,5.54,0c0,1.31-.76,2-1.9,2.56l1.41,1.83a6.66,6.66,0,0,0,.42-1.72h1.8a7.43,7.43,0,0,1-1,3.29l1.68,2.17H396l-.55-.7a4.75,4.75,0,0,1-2.83.93C390.28,141.62,389.07,140.32,389.07,138.65Zm5.32.67-1.95-2.54a2.05,2.05,0,0,0-1.22,1.81,1.37,1.37,0,0,0,1.47,1.36A2.57,2.57,0,0,0,394.39,139.32Zm-1.13-4.64a1.52,1.52,0,0,0,.89-1.39.84.84,0,1,0-1.67,0A2.1,2.1,0,0,0,393.26,134.68Z"></path><path class="cls-1" d="M402.31,138.1h2.11c.15,1.28.88,1.79,2.4,1.79,1.1,0,2.07-.39,2.07-1.37s-1-1.25-2.64-1.63c-1.9-.43-3.65-.93-3.65-3.15s1.72-3.19,4.09-3.19,3.94,1.18,4.11,3.32h-2.07a1.85,1.85,0,0,0-2.06-1.61c-1.16,0-1.92.49-1.92,1.25s.75,1.12,2.32,1.46c2.19.48,4,1,4,3.3,0,2.15-1.74,3.36-4.14,3.36C404,141.63,402.38,140.35,402.31,138.1Z"></path><path class="cls-1" d="M412.26,137.58a4,4,0,1,1,4,4A3.89,3.89,0,0,1,412.26,137.58Zm5.93,0c0-1.49-.7-2.5-1.93-2.5s-1.94,1-1.94,2.5.68,2.49,1.94,2.49S418.19,139.07,418.19,137.58Z"></path><path class="cls-1" d="M426.47,141.39v-.89h-.05a2.45,2.45,0,0,1-2.19,1.1,2.49,2.49,0,0,1-2.65-2.75v-5.1h2v4.75c0,.9.4,1.39,1.27,1.39a1.55,1.55,0,0,0,1.53-1.73v-4.41h2v7.64Z"></path><path class="cls-1" d="M429.73,133.75h1.06v-2.38h2v2.38h1.31v1.34h-1.31v4a.67.67,0,0,0,.76.76h.6v1.49s-.47,0-1.27,0c-1,0-2.07-.39-2.07-1.83v-4.49h-1.06Z"></path><path class="cls-1" d="M437.6,134.75h0a2.46,2.46,0,0,1,2.22-1.21,2.64,2.64,0,0,1,2.64,2.86v5h-2V136.7a1.27,1.27,0,0,0-1.32-1.4,1.6,1.6,0,0,0-1.55,1.76v4.33h-2V130.74h2Z"></path><path class="cls-1" d="M446.57,130.74h2.21l1.38,5.29c.21.91.46,2.32.46,2.32h0s.27-1.32.5-2.26l1.16-5.35h2.08l1.16,5.34c.23.93.5,2.27.5,2.27h0s.31-1.41.52-2.33l1.34-5.28h2.13l-3,10.65h-2l-1.3-5.7c-.18-.78-.37-1.89-.37-1.89h0s-.16,1.11-.34,1.89l-1.31,5.7h-2Z"></path><path class="cls-1" d="M460.06,137.56a3.78,3.78,0,0,1,3.77-4c2.46,0,3.77,1.88,3.77,4.61h-5.54a1.9,1.9,0,0,0,1.95,1.9,1.41,1.41,0,0,0,1.47-.94h2a3.28,3.28,0,0,1-3.46,2.51A3.79,3.79,0,0,1,460.06,137.56Zm2-.81h3.39a1.61,1.61,0,0,0-1.62-1.64A1.7,1.7,0,0,0,462.09,136.75Z"></path><path class="cls-1" d="M468.51,138.92h1.88a1.47,1.47,0,0,0,1.67,1.27c.89,0,1.4-.35,1.4-.88,0-.73-1-.81-2-1-1.37-.27-2.71-.65-2.71-2.31s1.36-2.45,3.11-2.45c2,0,3.13,1,3.27,2.54h-1.83c-.09-.82-.61-1.12-1.47-1.12s-1.31.3-1.31.85,1,.71,2.1.94c1.28.26,2.69.62,2.69,2.41,0,1.53-1.31,2.46-3.21,2.46C469.87,141.62,468.63,140.54,468.51,138.92Z"></path><path class="cls-1" d="M476.07,133.75h1.06v-2.38h2v2.38h1.31v1.34h-1.31v4a.67.67,0,0,0,.76.76h.59v1.49s-.46,0-1.26,0c-1,0-2.07-.39-2.07-1.83v-4.49h-1.06Z"></path><path class="cls-1" d="M209.26,30.85a5.53,5.53,0,0,0-1.44-.87,4,4,0,0,0-1.4-.28,2.25,2.25,0,0,0-1.39.41,1.26,1.26,0,0,0-.54,1.06,1.05,1.05,0,0,0,.27.74,2.49,2.49,0,0,0,.71.51,6.63,6.63,0,0,0,1,.37c.37.1.73.22,1.09.33a7,7,0,0,1,3.17,1.93,4.79,4.79,0,0,1,1,3.14,6.21,6.21,0,0,1-.44,2.37A4.94,4.94,0,0,1,210,42.37a6.09,6.09,0,0,1-2.08,1.17,8.55,8.55,0,0,1-2.78.42,10.2,10.2,0,0,1-6-1.92l1.89-3.55a7.91,7.91,0,0,0,2,1.3,4.68,4.68,0,0,0,1.92.43,2.28,2.28,0,0,0,1.61-.5,1.51,1.51,0,0,0,.53-1.12,1.54,1.54,0,0,0-.14-.67,1.42,1.42,0,0,0-.45-.51,3.28,3.28,0,0,0-.82-.44q-.51-.21-1.23-.45c-.57-.18-1.13-.38-1.67-.6a5.39,5.39,0,0,1-1.47-.87,4.07,4.07,0,0,1-1-1.36,4.86,4.86,0,0,1-.39-2.08,6,6,0,0,1,.42-2.29,5.22,5.22,0,0,1,1.17-1.76,5.29,5.29,0,0,1,1.85-1.13,6.94,6.94,0,0,1,2.44-.41,10.76,10.76,0,0,1,2.63.35,11.45,11.45,0,0,1,2.64,1Z"></path><path class="cls-1" d="M213.72,35a9,9,0,0,1,.7-3.52,8.71,8.71,0,0,1,4.9-4.75,10.75,10.75,0,0,1,7.58,0,9,9,0,0,1,3,1.9,8.51,8.51,0,0,1,2,2.85,9.23,9.23,0,0,1,0,7.05,8.51,8.51,0,0,1-2,2.85,9,9,0,0,1-3,1.9,10.75,10.75,0,0,1-7.58,0,8.71,8.71,0,0,1-4.9-4.75A9,9,0,0,1,213.72,35Zm4.62,0a4.6,4.6,0,0,0,.38,1.87,4.76,4.76,0,0,0,1,1.49,4.57,4.57,0,0,0,1.52,1,5,5,0,0,0,3.67,0,4.72,4.72,0,0,0,1.53-1,4.79,4.79,0,0,0,1.05-1.49,4.6,4.6,0,0,0,.38-1.87,4.66,4.66,0,0,0-.38-1.87A4.76,4.76,0,0,0,225,30.66a5,5,0,0,0-3.67,0,4.57,4.57,0,0,0-1.52,1,4.71,4.71,0,0,0-1,1.48A4.66,4.66,0,0,0,218.34,35Z"></path><path class="cls-1" d="M239.74,26.5v9.24c0,.49,0,1,0,1.52a4.17,4.17,0,0,0,.34,1.41,2.37,2.37,0,0,0,.89,1,3.18,3.18,0,0,0,1.71.39,3.08,3.08,0,0,0,1.7-.39,2.37,2.37,0,0,0,.89-1,4,4,0,0,0,.35-1.41c0-.52.06-1,.06-1.52V26.5h4.39v9.85q0,4-1.81,5.78T242.73,44q-3.76,0-5.58-1.83t-1.83-5.78V26.5Z"></path><path class="cls-1" d="M260.12,30.24V43.49h-4.41V30.24h-3.63V26.5h11.67v3.74Z"></path><path class="cls-1" d="M270.12,33.06h6.37V26.5h4.42v17h-4.42v-7h-6.37v7h-4.41v-17h4.41Z"></path><path class="cls-1" d="M294.13,30.24h-5.25v2.84h5v3.74h-5v2.93h5.25v3.74h-9.66v-17h9.66Z"></path><path class="cls-1" d="M311.43,43.49h-5.5L301.72,37v6.54H297.3v-17h6.87a6.67,6.67,0,0,1,2.48.42,4.83,4.83,0,0,1,1.75,1.14,4.69,4.69,0,0,1,1,1.66,5.66,5.66,0,0,1,.35,2,5,5,0,0,1-.93,3.14,4.75,4.75,0,0,1-2.76,1.64Zm-9.71-9.4h.83a3.25,3.25,0,0,0,2-.54,1.86,1.86,0,0,0,.7-1.55,1.88,1.88,0,0,0-.7-1.56,3.25,3.25,0,0,0-2-.54h-.83Z"></path><path class="cls-1" d="M313.27,43.49v-17h4.42l8.15,10.39V26.5h4.39v17h-4.39L317.69,33.1V43.49Z"></path><path class="cls-1" d="M351.11,30.24h-5.24v2.84h4.95v3.74h-4.95v2.93h5.24v3.74h-9.66v-17h9.66Z"></path><path class="cls-1" d="M354.29,43.49v-17h4.41l8.16,10.39V26.5h4.39v17h-4.39L358.7,33.1V43.49Z"></path><path class="cls-1" d="M381.25,30.24V43.49h-4.42V30.24h-3.62V26.5h11.67v3.74Z"></path><path class="cls-1" d="M396.5,30.24h-5.25v2.84h4.95v3.74h-4.95v2.93h5.25v3.74h-9.67v-17h9.67Z"></path><path class="cls-1" d="M413.79,43.49H408.3L404.09,37v6.54h-4.42v-17h6.87a6.71,6.71,0,0,1,2.48.42,4.79,4.79,0,0,1,1.74,1.14,4.71,4.71,0,0,1,1,1.66,5.89,5.89,0,0,1,.35,2,4.93,4.93,0,0,1-.94,3.14,4.69,4.69,0,0,1-2.75,1.64Zm-9.7-9.4h.83a3.2,3.2,0,0,0,2-.54,1.84,1.84,0,0,0,.7-1.55,1.86,1.86,0,0,0-.7-1.56,3.2,3.2,0,0,0-2-.54h-.83Z"></path><path class="cls-1" d="M420.06,43.49h-4.42v-17h7A6,6,0,0,1,427.05,28a5.61,5.61,0,0,1,1.52,4.19,5.61,5.61,0,0,1-1.52,4.19,6,6,0,0,1-4.38,1.48h-2.61Zm0-9.19h1.46c1.62,0,2.43-.71,2.43-2.12s-.81-2.12-2.43-2.12h-1.46Z"></path><path class="cls-1" d="M445,43.49h-5.49L435.33,37v6.54h-4.42v-17h6.87a6.71,6.71,0,0,1,2.48.42A4.79,4.79,0,0,1,442,28.06a4.71,4.71,0,0,1,1,1.66,5.89,5.89,0,0,1,.35,2,5,5,0,0,1-.93,3.14,4.75,4.75,0,0,1-2.76,1.64Zm-9.7-9.4h.83a3.25,3.25,0,0,0,2-.54,1.86,1.86,0,0,0,.69-1.55,1.88,1.88,0,0,0-.69-1.56,3.25,3.25,0,0,0-2-.54h-.83Z"></path><path class="cls-1" d="M451.3,26.5v17h-4.42v-17Z"></path><path class="cls-1" d="M464.18,30.85a5.53,5.53,0,0,0-1.44-.87,4,4,0,0,0-1.4-.28,2.28,2.28,0,0,0-1.4.41,1.26,1.26,0,0,0-.54,1.06,1.05,1.05,0,0,0,.27.74,2.65,2.65,0,0,0,.71.51,7.58,7.58,0,0,0,1,.37c.37.1.74.22,1.1.33a6.92,6.92,0,0,1,3.16,1.93,4.73,4.73,0,0,1,1,3.14,6,6,0,0,1-.44,2.37,4.94,4.94,0,0,1-1.28,1.81,6,6,0,0,1-2.07,1.17,8.59,8.59,0,0,1-2.78.42,10.2,10.2,0,0,1-6-1.92L456,38.49a7.56,7.56,0,0,0,2,1.3,4.6,4.6,0,0,0,1.91.43,2.28,2.28,0,0,0,1.61-.5A1.47,1.47,0,0,0,462,38.6a1.54,1.54,0,0,0-.13-.67,1.42,1.42,0,0,0-.45-.51,3.47,3.47,0,0,0-.82-.44q-.51-.21-1.23-.45t-1.68-.6a5.19,5.19,0,0,1-1.46-.87,4,4,0,0,1-1-1.36,4.86,4.86,0,0,1-.39-2.08,6,6,0,0,1,.41-2.29,5.22,5.22,0,0,1,1.17-1.76,5.38,5.38,0,0,1,1.85-1.13,7,7,0,0,1,2.44-.41,10.9,10.9,0,0,1,2.64.35,11.38,11.38,0,0,1,2.63,1Z"></path><path class="cls-1" d="M479.07,30.24h-5.25v2.84h4.95v3.74h-4.95v2.93h5.25v3.74H469.4v-17h9.67Z"></path><path class="cls-1" d="M263.43,63.56h-6.31l-1,3H251.4l6.47-17h4.82l6.46,17h-4.71Zm-1.17-3.35-2-5.66-2,5.66Z"></path><path class="cls-1" d="M273.16,49.53l2.93,11,3.6-11h3.52l3.6,11,2.93-11h4.61l-5.06,17h-4.51l-3.33-9.84-3.33,9.84h-4.51l-5.07-17Z"></path><path class="cls-1" d="M305.64,63.56h-6.31l-1,3h-4.71l6.47-17h4.81l6.47,17h-4.71Zm-1.17-3.35-2-5.66-2,5.66Z"></path><path class="cls-1" d="M327.42,66.51h-5.5L317.71,60v6.53H313.3v-17h6.87a6.65,6.65,0,0,1,2.47.42,4.65,4.65,0,0,1,2.78,2.8,5.66,5.66,0,0,1,.35,2,5,5,0,0,1-.93,3.14,4.68,4.68,0,0,1-2.76,1.63Zm-9.71-9.39h.83a3.25,3.25,0,0,0,2-.54,2.08,2.08,0,0,0,0-3.11,3.25,3.25,0,0,0-2-.54h-.83Z"></path><path class="cls-1" d="M329.26,49.53h6.54a7.63,7.63,0,0,1,3.25.7,8.74,8.74,0,0,1,2.66,1.86,8.6,8.6,0,0,1,1.79,2.7,8.36,8.36,0,0,1,0,6.44A8.61,8.61,0,0,1,341.73,64a8.82,8.82,0,0,1-2.66,1.87,7.8,7.8,0,0,1-3.27.69h-6.54Zm4.42,13.24h1a5.47,5.47,0,0,0,2.05-.36,4.35,4.35,0,0,0,1.52-1,4.22,4.22,0,0,0,.95-1.49,5.56,5.56,0,0,0,0-3.8,4.43,4.43,0,0,0-1-1.51,4.35,4.35,0,0,0-1.52-1,5.44,5.44,0,0,0-2-.36h-1Z"></path><path class="cls-1" d="M356.29,53.88a5.53,5.53,0,0,0-1.44-.87,3.76,3.76,0,0,0-1.4-.28,2.25,2.25,0,0,0-1.39.4,1.29,1.29,0,0,0-.54,1.06,1.08,1.08,0,0,0,.27.75,2.3,2.3,0,0,0,.71.5,5,5,0,0,0,1,.37l1.09.34a6.88,6.88,0,0,1,3.17,1.93,4.79,4.79,0,0,1,1,3.14,6.21,6.21,0,0,1-.44,2.37A4.85,4.85,0,0,1,357,65.4,6,6,0,0,1,355,66.57a8.55,8.55,0,0,1-2.78.42,10.2,10.2,0,0,1-6-1.92l1.89-3.56a7.79,7.79,0,0,0,2,1.31,4.68,4.68,0,0,0,1.92.43,2.28,2.28,0,0,0,1.61-.5,1.51,1.51,0,0,0,.53-1.12A1.54,1.54,0,0,0,354,61a1.44,1.44,0,0,0-.45-.52,4.09,4.09,0,0,0-.82-.44l-1.23-.45c-.57-.18-1.13-.38-1.68-.59a5.49,5.49,0,0,1-1.46-.87,4.07,4.07,0,0,1-1-1.36,4.9,4.9,0,0,1-.39-2.09,5.94,5.94,0,0,1,.42-2.28,5,5,0,0,1,1.17-1.76,5.21,5.21,0,0,1,1.84-1.14,7,7,0,0,1,2.45-.4,10.3,10.3,0,0,1,2.63.35,11.45,11.45,0,0,1,2.64,1Z"></path><path class="cls-1" d="M381.7,66.51H368l4.21-4.37a38.23,38.23,0,0,0,2.61-2.94,16.73,16.73,0,0,0,1.41-2,5.09,5.09,0,0,0,.57-1.36,3.9,3.9,0,0,0,.12-.87,2.11,2.11,0,0,0-.13-.75,1.79,1.79,0,0,0-.37-.64,1.69,1.69,0,0,0-.6-.45,1.87,1.87,0,0,0-.82-.17,1.78,1.78,0,0,0-1.41.59,2.19,2.19,0,0,0-.5,1.46,6,6,0,0,0,.06.72h-4.81a7.29,7.29,0,0,1,.48-2.7,6,6,0,0,1,3.44-3.45,7.34,7.34,0,0,1,2.65-.47,7.49,7.49,0,0,1,2.63.45,6.33,6.33,0,0,1,2.08,1.26A5.8,5.8,0,0,1,381,52.72a5.89,5.89,0,0,1,.5,2.42,5.63,5.63,0,0,1-.6,2.58,9.16,9.16,0,0,1-1.9,2.42l-2.82,2.63h5.5Z"></path><path class="cls-1" d="M383.16,58a12.11,12.11,0,0,1,.53-3.68,8.38,8.38,0,0,1,1.49-2.83,6.72,6.72,0,0,1,2.27-1.81,7,7,0,0,1,5.83,0,6.62,6.62,0,0,1,2.27,1.81A8.73,8.73,0,0,1,397,54.32a13.28,13.28,0,0,1,0,7.36,8.89,8.89,0,0,1-1.48,2.84,6.42,6.42,0,0,1-2.27,1.82,6.86,6.86,0,0,1-5.83,0,6.51,6.51,0,0,1-2.27-1.82,8.52,8.52,0,0,1-1.49-2.84A12.11,12.11,0,0,1,383.16,58Zm4.37,0a10,10,0,0,0,.2,2,6,6,0,0,0,.58,1.6,3.1,3.1,0,0,0,.89,1.05,2,2,0,0,0,1.17.37,2,2,0,0,0,1.16-.37,3,3,0,0,0,.89-1.05,6,6,0,0,0,.56-1.6A10.06,10.06,0,0,0,393,56a6,6,0,0,0-.56-1.6,2.92,2.92,0,0,0-.89-1,2,2,0,0,0-1.16-.38,1.93,1.93,0,0,0-1.17.38,3,3,0,0,0-.89,1,6,6,0,0,0-.58,1.6A9.94,9.94,0,0,0,387.53,58Z"></path><path class="cls-1" d="M412.33,66.51H398.66l4.21-4.37a38.23,38.23,0,0,0,2.61-2.94,16.73,16.73,0,0,0,1.41-2,5.09,5.09,0,0,0,.57-1.36,3.9,3.9,0,0,0,.12-.87,2.11,2.11,0,0,0-.13-.75,1.79,1.79,0,0,0-.37-.64,1.69,1.69,0,0,0-.6-.45,1.87,1.87,0,0,0-.82-.17,1.78,1.78,0,0,0-1.41.59,2.19,2.19,0,0,0-.5,1.46,4.72,4.72,0,0,0,.07.72H399a7.29,7.29,0,0,1,.48-2.7,6,6,0,0,1,3.45-3.45,7.25,7.25,0,0,1,2.64-.47,7.49,7.49,0,0,1,2.63.45,6.33,6.33,0,0,1,2.08,1.26,5.66,5.66,0,0,1,1.37,1.93,5.89,5.89,0,0,1,.5,2.42,5.63,5.63,0,0,1-.6,2.58,9.16,9.16,0,0,1-1.9,2.42l-2.82,2.63h5.5Z"></path><path class="cls-1" d="M418,53.27h-2.48V49.53h6.89v17H418Z"></path><path class="cls-1" d="M240.49,80.93l5.2,19.48,6.4-19.48h6.24l6.4,19.48,5.2-19.48h8.2l-9,30.16h-8l-5.92-17.48-5.92,17.48h-8l-9-30.16Z"></path><path class="cls-1" d="M295.13,80.93v30.16h-7.84V80.93Z"></path><path class="cls-1" d="M307.45,111.09V80.93h7.84l14.48,18.44V80.93h7.8v30.16h-7.8L315.29,92.65v18.44Z"></path><path class="cls-1" d="M349.89,111.09V80.93h7.84l14.48,18.44V80.93H380v30.16h-7.8L357.73,92.65v18.44Z"></path><path class="cls-1" d="M409.49,87.57h-9.32v5H409v6.64h-8.8v5.2h9.32v6.64H392.33V80.93h17.16Z"></path><path class="cls-1" d="M446.21,111.09h-9.76L429,99.49v11.6h-7.84V80.93h12.2a12,12,0,0,1,4.4.74,8.28,8.28,0,0,1,4.94,5,10.39,10.39,0,0,1,.62,3.6,8.8,8.8,0,0,1-1.66,5.58,8.32,8.32,0,0,1-4.9,2.9ZM429,94.41h1.48a5.72,5.72,0,0,0,3.56-1,3.69,3.69,0,0,0,0-5.52,5.72,5.72,0,0,0-3.56-1H429Z"></path></g></g></svg> 