<?xml version="1.0" encoding="UTF-8"?> <svg xmlns="http://www.w3.org/2000/svg" width="476.56277" height="143.61456" viewBox="0 0 476.56277 143.61456"><defs><style>.a6264f44-d5f8-4e59-a799-e638a5875038{fill:#0b2149;}</style></defs><g id="a75e1d5d-df8d-469a-908c-0d30a7842b75" data-name="Layer 2"><g id="f7da298f-d3a1-48b6-9e34-7150d6563621" data-name="Layer 1"><path class="a6264f44-d5f8-4e59-a799-e638a5875038" d="M217.12165,33.603V64.85939c0,.89445-.2104,1.26415-1.10656,1.26415h-4.79681c-.949-.05281-1.265-.21126-1.265-1.26415V33.603h-7.9589c-.949,0-1.15938-.31689-1.15938-1.16023V29.9656c0-.949.36885-1.10742,1.15938-1.10742h23.139c.73856,0,1.15937.10563,1.15937,1.00179V32.4428c0,.84334-.21041,1.16023-1.15937,1.16023Z"></path><path class="a6264f44-d5f8-4e59-a799-e638a5875038" d="M243.70472,48.30779a6.72728,6.72728,0,0,0-.68489-3.74135,3.989,3.989,0,0,0-3.42617-1.84513,6.97954,6.97954,0,0,0-4.53274,2.05468v20.0834c0,.84163-.15844,1.26415-1.10741,1.26415h-4.37429c-.84334,0-1.10741-.15844-1.10741-1.213v-35.525c0-.6866.21126-1.0546,1.10741-1.0546h4.37429c.84334,0,1.10741.10563,1.10741,1.00179V41.14026a10.62368,10.62368,0,0,1,7.53724-3.00535,7.05073,7.05073,0,0,1,6.27223,3.05817,9.84112,9.84112,0,0,1,1.47541,5.79774V64.85939c0,1.00008-.15759,1.26415-1.10656,1.26415h-4.26951c-1.10656,0-1.265-.10563-1.265-1.16023Z"></path><path class="a6264f44-d5f8-4e59-a799-e638a5875038" d="M260.36706,52.31323c.89615,7.27486,4.744,8.69746,7.274,8.69746a8.00927,8.00927,0,0,0,6.27223-3.479c.84334-1.21134,1.10656-1.52823,1.7923-1.52823a1.471,1.471,0,0,1,1.36979,1.63386c0,1.47542-2.16116,9.1711-10.43611,9.1711-6.95712,0-11.80674-5.06-11.80674-14.38958,0-10.48807,6.1666-14.284,11.80674-14.284,8.223,0,10.17289,7.37879,10.17289,9.90881a1.85659,1.85659,0,0,1-1.84513,2.1092Zm9.856-4.90159c-.21041-3.37336-2.26594-5.32411-4.58555-5.32411-3.63658,0-5.27044,3.32224-5.53452,6.958Z"></path><path class="a6264f44-d5f8-4e59-a799-e638a5875038" d="M294.82475,30.91457c0-1.00179.10563-1.31868.84334-1.58105a43.05174,43.05174,0,0,1,9.22391-.84334c3.26773,0,14.91688,0,14.91688,11.069,0,8.16931-6.74671,11.48985-14.75843,11.48985-1.10742,0-1.68668-.05281-3.05732-.15844v14.1255c0,1.00178-.36885,1.10741-1.15938,1.10741h-4.84962c-1.00093-.05281-1.15938-.31689-1.15938-1.16023Zm7.16838,15.81218a12.917,12.917,0,0,0,2.16116.15844c3.63658,0,8.32776-.89615,8.32776-7.27486,0-6.74671-5.69211-7.00909-8.01172-7.00909a13.42729,13.42729,0,0,0-2.4772.21126Z"></path><path class="a6264f44-d5f8-4e59-a799-e638a5875038" d="M349.95169,66.80844c-7.74849,0-12.5453-6.21856-12.5453-14.33677,0-8.22213,4.95525-14.33676,12.64923-14.33676,8.59184,0,12.3349,7.64287,12.49334,14.02158C362.70741,59.90328,358.17382,66.80844,349.95169,66.80844Zm-.21126-24.772c-3.58461,0-5.53537,4.32062-5.53537,9.64473,0,5.90337,2.53,10.75215,6.009,10.75215,3.37335,0,5.74663-4.53189,5.48255-10.5937C355.43255,45.56652,352.84971,42.03642,349.74043,42.03642Z"></path><path class="a6264f44-d5f8-4e59-a799-e638a5875038" d="M367.14218,44.98725c0-2.05468,0-2.84691.63208-3.69024,1.0546-1.52824,5.32411-3.1621,10.01444-3.1621,1.47541,0,5.74492.10563,8.75028,3.111,2.10749,2.05469,3.5301,5.69212,3.5301,10.06726,0,7.22034-3.74136,15.44247-11.6483,15.44247a8.09215,8.09215,0,0,1-4.796-1.36979V76.19165c0,.84334-.26408,1.10571-1.0546,1.10571h-4.11107c-.84334,0-1.317-.10563-1.317-1.10571Zm6.48264,16.34034a7.40679,7.40679,0,0,0,3.74136,1.21134c3.9015,0,6.009-4.53189,6.009-10.2257,0-7.326-3.1621-10.32963-6.48264-10.32963-3.21491,0-3.26772,2.21313-3.26772,3.68855Z"></path><path class="a6264f44-d5f8-4e59-a799-e638a5875038" d="M398.98291,52.31323c.89616,7.27486,4.74485,8.69746,7.27487,8.69746a8.0049,8.0049,0,0,0,6.27137-3.479c.84334-1.21134,1.10742-1.52823,1.79231-1.52823a1.47218,1.47218,0,0,1,1.37149,1.63386c0,1.47542-2.162,9.1711-10.437,9.1711-6.958,0-11.80674-5.06-11.80674-14.38958,0-10.48807,6.16745-14.284,11.80674-14.284,8.22213,0,10.17289,7.37879,10.17289,9.90881a1.857,1.857,0,0,1-1.84513,2.1092Zm9.8577-4.90159c-.21126-3.37336-2.26765-5.32411-4.5864-5.32411-3.63573,0-5.2713,3.32224-5.53367,6.958Z"></path><path class="a6264f44-d5f8-4e59-a799-e638a5875038" d="M445.35923,41.71953V58.007c0,1.52824.05282,4.90159,3.58462,5.06,1.317,0,2.31875,0,2.31875,1.36979,0,1.47541-2.95083,2.31875-5.06,2.31875a7.15965,7.15965,0,0,1-5.74493-2.31875,7.72008,7.72008,0,0,1-1.52823-5.37693V41.71953h-2.53c-.949,0-.949-.21126-.949-2.05639,0-.63208.21126-.84334.89616-.84334h2.58283V35.869a1.76914,1.76914,0,0,1,.949-1.84512l3.79417-2.42439c.581-.36971.73771-.42252.949-.42252.6849,0,.73771.84334.73771,1.47712V38.8198h4.00544c.581,0,1.00178,0,1.00178.73942,0,1.949,0,2.16031-.89615,2.16031Z"></path><path class="a6264f44-d5f8-4e59-a799-e638a5875038" d="M465.75781,69.761c-1.213,3.26772-3.479,9.11828-9.856,9.11828-3.26943,0-4.63922-1.58105-4.63922-3.26773a2.803,2.803,0,0,1,2.84691-2.8469c.79053,0,2.31876.57926,3.1621.57926,2.10749,0,3.21491-1.73779,4.74314-6.32419L451.84187,40.50648a3.1821,3.1821,0,0,1-.26238-.94726c0-.73942.6849-.73942,1.00009-.73942h4.85047c1.00179,0,1.00179.15845,1.36979,1.16023L465.0201,58.2166,470.87066,39.98c.31519-.949.47363-1.16023,1.47542-1.16023h3.16209c.36971,0,1.0546,0,1.0546.73942a2.72022,2.72022,0,0,1-.26407,1.00008Z"></path><path class="a6264f44-d5f8-4e59-a799-e638a5875038" d="M219.07241,115.28368c-9.01351,0-16.814-6.64108-16.814-19.3968,0-10.91059,6.1666-19.55524,16.91875-19.55524,10.48892,0,16.2347,8.59184,16.65637,18.50064C236.308,106.639,229.19248,115.28368,219.07241,115.28368Zm6.95712-30.30739c-2.58283-4.00543-5.95619-4.11106-7.00994-4.11106a7.90857,7.90857,0,0,0-3.95347,1.0546c-5.16566,3.05646-5.37607,10.54088-5.37607,13.38779a30.25952,30.25952,0,0,0,.42167,5.32241c1.52823,8.59183,6.95712,9.64643,9.0135,9.64643a8.29317,8.29317,0,0,0,7.22035-4.5864c1.68668-3.05646,2.10835-7.11471,2.05638-10.75215C228.34914,92.14382,228.03225,88.1912,226.02953,84.97629Z"></path><path class="a6264f44-d5f8-4e59-a799-e638a5875038" d="M240.42677,92.46071c.05282-2.21312.05282-2.79409,1.37064-3.74306,2.16117-1.58105,6.48349-2.26594,8.96069-2.26594,5.2713,0,7.16839,2.00357,8.17017,3.00535a8.55044,8.55044,0,0,1,4.16388-2.42609,16.99133,16.99133,0,0,1,4.63836-.57926,9.93989,9.93989,0,0,1,6.27223,1.73949c2.53,2.05639,2.58283,5.2713,2.58283,7.01079v18.13094c0,.79052-.21126,1.10741-1.0546,1.10741h-4.37428c-.89616,0-1.10742-.26407-1.10742-1.16023V96.04533c0-2.26765-.05281-5.641-4.16388-5.641a4.26379,4.26379,0,0,0-2.95169,1.0546c-1.15937,1.00178-1.15937,2.05638-1.15937,3.74306v18.07812c0,.84334-.15845,1.16023-1.0546,1.16023H256.503c-.84334,0-1.265-.10563-1.265-1.10741V95.72844c0-1.63386,0-5.48085-4.11106-5.48085a4.10433,4.10433,0,0,0-2.89887,1.05289c-1.2122,1.10742-1.265,2.37328-1.265,3.90151v18.07812c0,.949-.26323,1.16023-1.15938,1.16023H241.587c-1.00178,0-1.16023-.31689-1.16023-1.10741Z"></path><path class="a6264f44-d5f8-4e59-a799-e638a5875038" d="M288.71773,89.66662a10.33706,10.33706,0,0,1,7.32683-3.21491c5.79774,0,9.11828,5.32411,9.11828,12.80853,0,9.488-4.9544,15.865-13.28216,15.865a12.57923,12.57923,0,0,1-8.06454-2.47721c-1.52908-1.36978-1.5819-2.31875-1.5819-5.48085V76.85809c0-.84164.21126-1.10571,1.0546-1.10571h4.16388c.949,0,1.265.10563,1.265,1.10571Zm0,16.02344a12.23948,12.23948,0,0,0,.10563,2.32046,3.51878,3.51878,0,0,0,3.63658,3.00365c3.11013,0,6.21941-3.42617,6.21941-10.33133,0-2.58283-.52645-9.59191-5.63929-9.59191a6.91686,6.91686,0,0,0-4.32233,1.949Z"></path><path class="a6264f44-d5f8-4e59-a799-e638a5875038" d="M331.62835,107.90489c0,2.31876-.05281,3.79417-2.05553,5.16567a18.54722,18.54722,0,0,1-9.11828,2.05468c-10.17289,0-10.80582-5.2713-10.80582-8.59184v-18.395c0-.84334.42252-1.00179,1.10742-1.00179h4.32232c.79053-.05281,1.15938.15845,1.15938,1.0546v17.65731c0,1.73949.05282,4.90159,4.58555,4.90159,4.2167,0,4.26951-2.53,4.26951-4.26951V88.244c0-.84334.26322-1.10742,1.10656-1.10742h4.16388c.84334,0,1.265.10563,1.265,1.10742Z"></path><path class="a6264f44-d5f8-4e59-a799-e638a5875038" d="M359.09735,109.0106a4.19112,4.19112,0,0,1-1.68668,3.90151c-1.7923,1.317-5.58818,2.21313-8.96154,2.21313-7.85327,0-12.386-5.00722-12.386-13.59906,0-7.37879,3.95347-15.12729,11.70112-15.12729a8.31625,8.31625,0,0,1,4.796,1.42431V76.96372c0-.79052.15844-1.26416,1.213-1.26416h4.05825c1.00179,0,1.26586.21126,1.26586,1.15853ZM352.5602,91.30048a5.32262,5.32262,0,0,0-3.42617-1.317c-4.11107,0-6.48264,4.74314-6.48264,10.38414,0,6.64109,2.74128,10.48808,6.64108,10.48808,3.26773,0,3.26773-2.31876,3.26773-3.95262Z"></path><path class="a6264f44-d5f8-4e59-a799-e638a5875038" d="M384.16262,92.46071c.05282-2.21312.05282-2.79409,1.36979-3.74306,2.162-1.58105,6.48264-2.26594,8.96154-2.26594,5.26959,0,7.16753,2.00357,8.16932,3.00535a8.55479,8.55479,0,0,1,4.16388-2.42609,16.98508,16.98508,0,0,1,4.63751-.57926,9.93939,9.93939,0,0,1,6.27308,1.73949c2.53,2.05639,2.58283,5.2713,2.58283,7.01079v18.13094c0,.79052-.21126,1.10741-1.0546,1.10741h-4.37514c-.89615,0-1.10571-.26407-1.10571-1.16023V96.04533c0-2.26765-.05282-5.641-4.16388-5.641a4.26114,4.26114,0,0,0-2.95254,1.0546c-1.16023,1.00178-1.16023,2.05638-1.16023,3.74306v18.07812c0,.84334-.15674,1.16023-1.05289,1.16023h-4.2167c-.84334,0-1.26586-.10563-1.26586-1.10741V95.72844c0-1.63386,0-5.48085-4.11106-5.48085a4.10826,4.10826,0,0,0-2.89973,1.05289c-1.21134,1.10742-1.26415,2.37328-1.26415,3.90151v18.07812c0,.949-.26408,1.16023-1.16023,1.16023h-4.2167c-1.00008,0-1.15853-.31689-1.15853-1.10741Z"></path><path class="a6264f44-d5f8-4e59-a799-e638a5875038" d="M444.78592,108.85386c-.05281,2.31876-.26237,3.58291-2.31875,4.69033-2.74128,1.52823-6.79953,1.58105-7.7485,1.58105-1.68668,0-10.2257,0-10.2257-7.43161a7.15689,7.15689,0,0,1,2.32046-5.37692c2.31876-2.266,5.74493-3.1621,11.75393-4.74315V94.8851c0-1.949-.05281-4.796-3.21491-4.796-2.53,0-3.26943,1.95076-3.69025,2.898-.47363,1.31868-.949,2.63565-2.95253,2.63565a2.72529,2.72529,0,0,1-2.84521-2.79239c0-3.21662,4.11107-6.37871,10.48807-6.37871,8.48621,0,8.43339,5.32411,8.43339,9.22391ZM438.56736,100.63c-4.11106,1.26586-7.64287,2.37327-7.64287,6.32589,0,2.63565,1.58105,4.53359,4.37515,4.53359,3.21491,0,3.26772-2.32046,3.26772-3.479Z"></path><path class="a6264f44-d5f8-4e59-a799-e638a5875038" d="M471.93633,113.33293c0,.949-.31689,1.10741-1.16023,1.10741h-4.2167c-1.0546,0-1.15852-.42252-1.15852-1.213v-17.814c0-2.1092-.05282-5.37692-4.53359-5.37692-4.2167,0-4.2167,3.21491-4.2167,4.42795v18.71191c0,1.05289-.26407,1.26415-1.26586,1.26415h-4.16388c-.84334,0-1.10571-.21126-1.10571-1.10741V92.51353c0-2.1092.10563-3.32054,2.4772-4.428a21.41453,21.41453,0,0,1,8.907-1.63386c5.27129,0,7.11642,1.31867,8.01257,2.05638,2.37157,1.949,2.42439,4.428,2.42439,6.27138Z"></path><path class="a6264f44-d5f8-4e59-a799-e638a5875038" d="M431.43837,42.43679c.02044.02172.71013.74964,1.16736-.05324l1.249-2.19438a1.2912,1.2912,0,0,0-.8936-1.92478,14.20952,14.20952,0,0,0-1.97908-.12948c-4.05825,0-7.85242.84334-9.64473,1.84512-1.31867.6849-1.52823,1.36979-1.52823,3.00365V65.01613a1.10738,1.10738,0,0,0,1.10741,1.10741H425.29c.89615,0,1.0546-.26407,1.10741-1.10741V44.61925c0-1.31867.05282-3.1638,2.7941-3.1638A2.71485,2.71485,0,0,1,431.43837,42.43679Z"></path><path class="a6264f44-d5f8-4e59-a799-e638a5875038" d="M334.81744,42.43679c.02045.02172.71013.74964,1.16737-.05324l1.249-2.19438a1.2912,1.2912,0,0,0-.8936-1.92478,14.20952,14.20952,0,0,0-1.97908-.12948c-4.05824,0-7.85242.84334-9.64473,1.84512-1.31867.6849-1.52823,1.36979-1.52823,3.00365V65.01613a1.10738,1.10738,0,0,0,1.10742,1.10741h4.37343c.89616,0,1.0546-.26407,1.10742-1.10741V44.61925c0-1.31867.05281-3.1638,2.79409-3.1638A2.71485,2.71485,0,0,1,334.81744,42.43679Z"></path><path class="a6264f44-d5f8-4e59-a799-e638a5875038" d="M375.0289,98.73379l-2.63565-1.213c-1.84342-.79053-4.16388-1.79231-4.16388-4.428a3.12247,3.12247,0,0,1,3.1638-3.16209,3.57712,3.57712,0,0,1,3.16139,1.84524.48934.48934,0,0,0,.67223.146L378.8142,89.692a.49112.49112,0,0,0,.1084-.7539c-1.34086-1.3601-3.66491-2.4864-7.26706-2.4864-6.69389,0-9.1711,4.00543-9.1711,7.7485,0,4.90158,4.2167,6.958,5.79775,7.69568,1.31867.63208,4.53358,2.16031,5.27129,2.68846a4.2665,4.2665,0,0,1,1.68668,3.26773,3.16849,3.16849,0,0,1-3.32054,3.26772c-1.98044,0-2.93648-1.20765-4.09372-2.83884l-1.24275-.12612c-.91216.8694-2.29415,2.16763-3.24706,2.97686a.49609.49609,0,0,0-.08088.68969c1.40852,1.71642,4.07135,3.30385,8.506,3.30385,7.85413,0,9.488-5.32241,9.488-8.275C381.24916,101.79026,377.45329,99.89232,375.0289,98.73379Z"></path><path class="a6264f44-d5f8-4e59-a799-e638a5875038" d="M173.16035,111.81622H106.13921A13.51351,13.51351,0,0,1,94.91647,90.7751l32.0653-47.80531L100.971,4.19073a9.46059,9.46059,0,0,0-15.71386,0L1.6197,128.88385a9.46069,9.46069,0,0,0,7.85694,14.73071H176.75139a9.4607,9.4607,0,0,0,7.857-14.73071Z"></path><path class="a6264f44-d5f8-4e59-a799-e638a5875038" d="M172.6183,106.816h-66.752a8.36726,8.36726,0,0,1-6.94922-13.02832l33.376-49.76074a8.367,8.367,0,0,1,13.89843,0l33.376,49.76074A8.36726,8.36726,0,0,1,172.6183,106.816Zm-33.376-61.49609a3.3189,3.3189,0,0,0-2.79687,1.49218l-33.376,49.76074a3.36748,3.36748,0,0,0,2.79688,5.24317h66.752a3.36748,3.36748,0,0,0,2.79688-5.24317l-33.376-49.76074A3.31891,3.31891,0,0,0,139.24232,45.31989Z"></path></g></g></svg> 