<?xml version="1.0" encoding="UTF-8"?> <svg xmlns="http://www.w3.org/2000/svg" width="476.56277" height="143.61456" viewBox="0 0 476.56277 143.61456"><defs><style>.b641ebca-1be1-4cbc-afdf-b305ed00d121{fill:#0b2149;}</style></defs><g id="b849f0bf-71a9-4356-8721-0cce56f0ef94" data-name="Layer 2"><g id="a0b4b716-7e65-4bdc-8cda-4f2106004e22" data-name="Layer 1"><rect class="b641ebca-1be1-4cbc-afdf-b305ed00d121" x="48.54131" y="51.17514" width="2.00197" height="7.46496"></rect><rect class="b641ebca-1be1-4cbc-afdf-b305ed00d121" x="69.00315" y="51.17514" width="1.35621" height="7.46496"></rect><rect class="b641ebca-1be1-4cbc-afdf-b305ed00d121" x="82.83381" y="39.59846" width="1.57219" height="19.04164"></rect><path class="b641ebca-1be1-4cbc-afdf-b305ed00d121" d="M100.87522,88.16064V77.9359h3.34792s6.28867-.67863,6.19818,5.2481c.04524,0,.49767,4.97664-5.92673,4.97664Z"></path><path class="b641ebca-1be1-4cbc-afdf-b305ed00d121" d="M71.80718,8.7279a63.07933,63.07933,0,1,0,63.07934,63.07933A63.07932,63.07932,0,0,0,71.80718,8.7279Zm-18.753,97.55224H29.57351V71.46627H37.9207V99.426H53.05421Zm24.838,0-9.50088-13.912-1.968,2.64666v11.26531H58.0761V71.33054h8.34718V86.93909L77.96006,71.33054h9.63657L75.17766,87.482l13.0976,18.79814Zm10.7224-43.50037H78.57081V35.32906h5.83624V30.884h-15.405V47.00154h5.53085V62.77977H64.82849V51.14121H54.81866V62.77977H44.29986V46.93368H50.5772v-4.7165H40.49952V62.77977H27.87693V58.6401h8.449V38.04359H54.78473v8.924H64.93028V26.67649H88.58067v8.65257h19.47677V58.674h8.58469v4.10573H103.88382V39.57052H88.61458Zm17.78019,32.122h-5.47429v11.37841H92.48279V71.33054h14.86205s9.41039-.58815,11.6725,8.14359S114.40264,94.90173,106.39477,94.90173Z"></path><path class="b641ebca-1be1-4cbc-afdf-b305ed00d121" d="M71.80723,143.61456A71.8256,71.8256,0,0,1,43.856,5.64385,71.82527,71.82527,0,0,1,99.75851,137.97061,71.35852,71.35852,0,0,1,71.80723,143.61456Zm0-139.0941a67.28692,67.28692,0,0,0-47.579,114.86586,67.28685,67.28685,0,0,0,95.158-95.158A66.84653,66.84653,0,0,0,71.80723,4.52046Z"></path><path class="b641ebca-1be1-4cbc-afdf-b305ed00d121" d="M179.41505,23.65625v23.669h-7.88947v-23.669h-6.48073V16.974h20.85093v6.68222Z"></path><path class="b641ebca-1be1-4cbc-afdf-b305ed00d121" d="M196.07963,28.68784h11.3911V16.974h7.89112V47.3252h-7.89112V34.80656h-11.3911V47.3252h-7.88947V16.974h7.88947Z"></path><path class="b641ebca-1be1-4cbc-afdf-b305ed00d121" d="M237.782,23.65625h-9.379v5.072h8.85538v6.68222H228.403V40.643h9.379V47.3252H220.513V16.974h17.269Z"></path><path class="b641ebca-1be1-4cbc-afdf-b305ed00d121" d="M175.79219,56.20935V79.8783H185.252v6.68222h-17.3493V56.20935Z"></path><path class="b641ebca-1be1-4cbc-afdf-b305ed00d121" d="M205.37838,62.89157h-9.379V67.963h8.85648v6.68222h-8.85648V79.8783h9.379v6.68222H188.1099V56.20935h17.26848Z"></path><path class="b641ebca-1be1-4cbc-afdf-b305ed00d121" d="M228.44288,81.28759h-11.271l-1.81115,5.27293h-8.41256l11.55218-30.35117h8.614l11.55329,30.35117H230.254Zm-2.09345-5.998L222.80794,65.1854l-3.54259,10.10414Z"></path><path class="b641ebca-1be1-4cbc-afdf-b305ed00d121" d="M257.58624,63.9776a9.76218,9.76218,0,0,0-2.57613-1.54878,6.84366,6.84366,0,0,0-2.49642-.50371,4.04459,4.04459,0,0,0-2.49531.72512,2.2569,2.2569,0,0,0-.96647,1.892,1.87708,1.87708,0,0,0,.48379,1.32736,4.20365,4.20365,0,0,0,1.26758.90669,10.8225,10.8225,0,0,0,1.7713.66312q.98639.28231,1.95175.60446a12.17826,12.17826,0,0,1,5.656,3.44185,8.49578,8.49578,0,0,1,1.79122,5.615,10.925,10.925,0,0,1-.78491,4.22676,8.81759,8.81759,0,0,1-2.29493,3.24036,10.56345,10.56345,0,0,1-3.70312,2.09345,15.43433,15.43433,0,0,1-4.9707.74506,18.27777,18.27777,0,0,1-10.66763-3.42193l3.38207-6.36006a13.68561,13.68561,0,0,0,3.50163,2.33479,8.40659,8.40659,0,0,0,3.42192.765,4.08479,4.08479,0,0,0,2.87725-.88565,2.69307,2.69307,0,0,0,.94654-2.01264,2.73086,2.73086,0,0,0-.24134-1.18787,2.56853,2.56853,0,0,0-.80594-.9255,6.40034,6.40034,0,0,0-1.46907-.78491q-.905-.362-2.19309-.80483-1.53106-.48324-2.999-1.06721a9.41967,9.41967,0,0,1-2.61709-1.54988,7.19591,7.19591,0,0,1-1.851-2.43554,8.5927,8.5927,0,0,1-.7052-3.723,10.74531,10.74531,0,0,1,.74506-4.08616,9.05935,9.05935,0,0,1,2.09345-3.13962,9.33055,9.33055,0,0,1,3.30014-2.03256,12.46463,12.46463,0,0,1,4.36846-.72513,19.108,19.108,0,0,1,4.70944.62438,20.819,20.819,0,0,1,4.70943,1.83108Z"></path><path class="b641ebca-1be1-4cbc-afdf-b305ed00d121" d="M282.98553,62.89157h-9.379V67.963h8.85538v6.68222h-8.85538V79.8783h9.379v6.68222h-17.269V56.20935h17.269Z"></path><path class="b641ebca-1be1-4cbc-afdf-b305ed00d121" d="M295.34364,67.92316h11.39165V56.20935h7.89V86.56052h-7.89V74.04188H295.34364V86.56052h-7.89V56.20935h7.89Z"></path><path class="b641ebca-1be1-4cbc-afdf-b305ed00d121" d="M318.40814,71.38494a15.64023,15.64023,0,0,1,10.00339-14.79365,19.293,19.293,0,0,1,13.54489,0,16.01171,16.01171,0,0,1,5.33381,3.402,15.5839,15.5839,0,0,1,3.48171,5.09137,16.52834,16.52834,0,0,1,0,12.59945,15.577,15.577,0,0,1-3.48171,5.09248,16.01171,16.01171,0,0,1-5.33381,3.402,19.293,19.293,0,0,1-13.54489,0,15.69913,15.69913,0,0,1-10.00339-14.79365Zm8.252,0a8.08824,8.08824,0,0,0,.68417,3.34111,8.44008,8.44008,0,0,0,1.85211,2.65694,8.35122,8.35122,0,0,0,2.71672,1.75026,8.93139,8.93139,0,0,0,6.56155,0,8.58287,8.58287,0,0,0,2.73665-1.75026,8.28523,8.28523,0,0,0,1.872-2.65694,8.50016,8.50016,0,0,0,0-6.68222,8.29737,8.29737,0,0,0-1.872-2.65694,8.85527,8.85527,0,0,0-9.2982-1.75137,8.36145,8.36145,0,0,0-4.56883,4.40831A8.0882,8.0882,0,0,0,326.66016,71.38494Z"></path><path class="b641ebca-1be1-4cbc-afdf-b305ed00d121" d="M363.69244,56.20935V79.8783h9.45983v6.68222H355.80242V56.20935Z"></path><path class="b641ebca-1be1-4cbc-afdf-b305ed00d121" d="M376.00959,56.20935h11.67395A13.77771,13.77771,0,0,1,393.5,57.457a15.88911,15.88911,0,0,1,4.75039,3.32118,15.43811,15.43811,0,0,1,3.19941,4.83011,14.89231,14.89231,0,0,1,.021,11.51232,15.35973,15.35973,0,0,1-3.18058,4.85114,15.65485,15.65485,0,0,1-4.74929,3.3411,13.87567,13.87567,0,0,1-5.85746,1.24766H376.00959Zm7.89,23.66895h1.81115a9.79454,9.79454,0,0,0,3.66326-.6443,7.83175,7.83175,0,0,0,2.71784-1.77019,7.60635,7.60635,0,0,0,1.69048-2.67688,9.59285,9.59285,0,0,0,.58342-3.402,9.32557,9.32557,0,0,0-.60446-3.381,7.57265,7.57265,0,0,0-4.42713-4.4681,9.68389,9.68389,0,0,0-3.62341-.64431h-1.81115Z"></path><path class="b641ebca-1be1-4cbc-afdf-b305ed00d121" d="M423.7095,62.89157h-9.379V67.963h8.85538v6.68222h-8.85538V79.8783h9.379v6.68222h-17.269V56.20935h17.269Z"></path><path class="b641ebca-1be1-4cbc-afdf-b305ed00d121" d="M453.41746,86.56052h-9.82184l-7.528-11.67395V86.56052h-7.89V56.20935h12.27729a12.0388,12.0388,0,0,1,4.42825.74506,8.33989,8.33989,0,0,1,4.9718,5.01055,10.40473,10.40473,0,0,1,.62328,3.62341,8.90518,8.90518,0,0,1-1.67056,5.61612,8.41758,8.41758,0,0,1-4.93084,2.91821ZM436.06761,69.77417h1.489a5.755,5.755,0,0,0,3.58355-.96536,3.71568,3.71568,0,0,0,0-5.55523,5.75494,5.75494,0,0,0-3.58355-.96646h-1.489Z"></path><path class="b641ebca-1be1-4cbc-afdf-b305ed00d121" d="M472.17549,63.9776a9.76186,9.76186,0,0,0-2.57613-1.54878,6.84362,6.84362,0,0,0-2.49642-.50371,4.04459,4.04459,0,0,0-2.49531.72512,2.25689,2.25689,0,0,0-.96646,1.892,1.87712,1.87712,0,0,0,.48378,1.32736,4.20382,4.20382,0,0,0,1.26759.90669,10.82272,10.82272,0,0,0,1.77129.66312q.9864.28231,1.95175.60446a12.17821,12.17821,0,0,1,5.656,3.44185,8.49578,8.49578,0,0,1,1.79122,5.615,10.925,10.925,0,0,1-.7849,4.22676,8.81773,8.81773,0,0,1-2.29494,3.24036,10.56349,10.56349,0,0,1-3.70311,2.09345,15.43444,15.43444,0,0,1-4.97071.74506,18.27781,18.27781,0,0,1-10.66763-3.42193l3.38207-6.36006a13.686,13.686,0,0,0,3.50163,2.33479,8.4066,8.4066,0,0,0,3.42193.765,4.08481,4.08481,0,0,0,2.87725-.88565,2.6931,2.6931,0,0,0,.94653-2.01264,2.73072,2.73072,0,0,0-.24134-1.18787,2.56853,2.56853,0,0,0-.80594-.9255,6.40034,6.40034,0,0,0-1.46907-.78491q-.905-.362-2.19308-.80483-1.53107-.48324-2.999-1.06721a9.41967,9.41967,0,0,1-2.61709-1.54988,7.19576,7.19576,0,0,1-1.851-2.43554,8.5927,8.5927,0,0,1-.7052-3.723,10.74531,10.74531,0,0,1,.745-4.08616,9.05935,9.05935,0,0,1,2.09345-3.13962,9.33051,9.33051,0,0,1,3.30015-2.03256,12.46459,12.46459,0,0,1,4.36846-.72513,19.10789,19.10789,0,0,1,4.70943.62438,20.819,20.819,0,0,1,4.70944,1.83108Z"></path><path class="b641ebca-1be1-4cbc-afdf-b305ed00d121" d="M189.76053,105.58757a8.42176,8.42176,0,0,0-6.763-3.34111,8.26533,8.26533,0,0,0-3.28022.64431,7.98152,7.98152,0,0,0-2.59661,1.75137,8.07055,8.07055,0,0,0-1.711,2.63591,8.6535,8.6535,0,0,0-.62383,3.30125,8.75637,8.75637,0,0,0,.62383,3.34111,8.05257,8.05257,0,0,0,4.32749,4.42713,8.0214,8.0214,0,0,0,3.22044.64431,9.13518,9.13518,0,0,0,6.80289-3.22044v9.33917l-.80539.28119a23.325,23.325,0,0,1-3.381.94654,16.37342,16.37342,0,0,1-3.09977.30222,15.84635,15.84635,0,0,1-11.09-4.529,16.6,16.6,0,0,1-3.52211-5.11241,16.38857,16.38857,0,0,1-.01993-12.88064,16.0273,16.0273,0,0,1,14.67243-9.51961,16.67152,16.67152,0,0,1,3.56252.38193,21.69255,21.69255,0,0,1,3.68319,1.18788Z"></path><path class="b641ebca-1be1-4cbc-afdf-b305ed00d121" d="M202.72144,107.15738h11.39165V95.44357h7.89v30.35117h-7.89V113.2761H202.72144v12.51864H194.832V95.44357h7.88947Z"></path><path class="b641ebca-1be1-4cbc-afdf-b305ed00d121" d="M245.75177,120.52181h-11.271l-1.81115,5.27293h-8.41255l11.55218-30.35117h8.614l11.55328,30.35117h-8.41365Zm-2.09346-5.99805-3.54148-10.103-3.54259,10.103Z"></path><path class="b641ebca-1be1-4cbc-afdf-b305ed00d121" d="M283.46931,125.79474h-9.82184l-7.528-11.674v11.674h-7.89V95.44357h12.2773a12.06181,12.06181,0,0,1,4.42824.74505,8.33787,8.33787,0,0,1,4.97181,5.01167,10.39844,10.39844,0,0,1,.62328,3.6223,8.89975,8.89975,0,0,1-1.67056,5.615,8.41319,8.41319,0,0,1-4.93085,2.91932Zm-17.34985-16.78525h1.489a5.755,5.755,0,0,0,3.58355-.96646,3.71568,3.71568,0,0,0,0-5.55523,5.75508,5.75508,0,0,0-3.58355-.96536h-1.489Z"></path><path class="b641ebca-1be1-4cbc-afdf-b305ed00d121" d="M293.45167,95.44357v30.35117h-7.89V95.44357Z"></path><path class="b641ebca-1be1-4cbc-afdf-b305ed00d121" d="M310.11625,102.12579v23.669h-7.89v-23.669H295.7455V95.44357H316.597v6.68222Z"></path><path class="b641ebca-1be1-4cbc-afdf-b305ed00d121" d="M328.189,111.2225,317.11952,95.44357h9.41887l5.636,8.29189,5.59508-8.29189h9.41887L336.079,111.2225v14.57224h-7.89Z"></path></g></g></svg> 